# xmcd CD database file
#
# Track frame offsets:
#	150
#	14679
#	30567
#	42471
#	55830
#	69057
#	85023
#	101164
#	113453
#	129430
#	140707
#	160633
#
# Disc length: 2405 seconds
#
# Revision: 2
# Processed by: cddbd v1.5.2PL0 Copyright (c) Steve Scherf et al.
# Submitted via: CDex 1.70beta2
#
DISCID=9509630c
DTITLE=Ì¤ÃÎ - ムード音楽トランペット
DYEAR=1900
DGENRE=
TTITLE0=イェスタデイ
TTITLE1=トオゲの幌馬車
TTITLE2=アメージンググレース
TTITLE3=ラクカラーチャ
TTITLE4=荒城の月
TTITLE5=赤い河の谷間
TTITLE6=ラバンバ
TTITLE7=シエリトリンオ
TTITLE8=蛍の光
TTITLE9=サンタルチア
TTITLE10=聖者が街にやってくる
TTITLE11=君の友達
EXTD=
EXTT0=
EXTT1=
EXTT2=
EXTT3=
EXTT4=
EXTT5=
EXTT6=
EXTT7=
EXTT8=
EXTT9=
EXTT10=
EXTT11=
PLAYORDER=
